<svg xmlns="http://www.w3.org/2000/svg" version="1.1" xmlns:xlink="http://www.w3.org/1999/xlink" width="512" height="512"><svg width="512" height="512" viewBox="0 0 512 512" fill="none" xmlns="http://www.w3.org/2000/svg">
<path d="M469 244.154C464.328 244.154 459.045 244.209 452.87 246.331C447.076 248.322 439.656 252.454 431.715 261.797L430.945 262.718C418.659 277.636 407.229 287.532 395.66 293.58C383.762 299.8 372.832 301.367 362.75 301.367C352.668 301.367 341.739 299.8 329.841 293.581C318.633 287.722 307.555 278.253 295.704 264.104L294.555 262.72C286.325 252.725 278.611 248.388 272.63 246.332C267.227 244.476 262.507 244.202 258.281 244.162L256.5 244.155C251.828 244.155 246.545 244.21 240.37 246.332C234.576 248.324 227.156 252.456 219.215 261.799L218.445 262.72C206.159 277.638 194.728 287.533 183.159 293.581C171.261 299.8 160.332 301.367 150.25 301.367C140.168 301.367 129.239 299.801 117.341 293.582C106.133 287.723 95.0552 278.253 83.2043 264.104L82.0554 262.72C73.8245 252.725 66.1109 248.388 60.1298 246.332C53.955 244.21 48.6724 244.155 44 244.155V211.463C49.1353 211.463 59.0931 211.408 70.7548 215.416C82.6103 219.49 95.33 227.413 107.291 241.937L108.278 243.125C118.4 255.207 126.275 261.362 132.486 264.609C138.569 267.789 143.985 268.675 150.25 268.675C156.514 268.675 161.931 267.789 168.014 264.609C174.425 261.258 182.61 254.807 193.209 241.936L193.77 241.261C205.567 227.165 218.075 219.426 229.745 215.415C241.407 211.407 251.365 211.463 256.5 211.463L258.646 211.468C264.152 211.513 273.051 211.908 283.255 215.415C295.11 219.489 307.83 227.412 319.791 241.936L320.778 243.125C330.9 255.207 338.775 261.362 344.986 264.608C351.069 267.788 356.485 268.674 362.75 268.674C369.014 268.674 374.43 267.788 380.514 264.608C386.925 261.256 395.11 254.806 405.709 241.936L406.27 241.259C418.067 227.164 430.575 219.424 442.245 215.413C453.907 211.406 463.865 211.461 469 211.461V244.154Z" fill="url(#paint0_linear_336_125)"></path>
<defs>
<linearGradient id="SvgjsLinearGradient1001" x1="44" y1="258.398" x2="469" y2="258.398" gradientUnits="userSpaceOnUse">
<stop stop-color="#FFB600"></stop>
<stop offset="0.331731" stop-color="#FFF200"></stop>
<stop offset="0.721154" stop-color="#9AEBA3"></stop>
<stop offset="1" stop-color="#00F4EE"></stop>
</linearGradient>
</defs>
</svg><style>@media (prefers-color-scheme: light) { :root { filter: none; } }
@media (prefers-color-scheme: dark) { :root { filter: none; } }
</style></svg>